<?xml version="1.0" encoding="UTF-8"?>
<!DOCTYPE svg PUBLIC "-//W3C//DTD SVG 1.1//EN" "http://www.w3.org/Graphics/SVG/1.1/DTD/svg11.dtd">
<svg version="1.1" xmlns="http://www.w3.org/2000/svg" xmlns:xlink="http://www.w3.org/1999/xlink" x="0" y="0" width="100" height="100" viewBox="0, 0, 100, 100">
  <g id="Layer_1">
    <path d="M0,0 L100,0 L100,100 L0,100 L0,0 z" fill="#990042" display="none"/>
    <path d="M30.413,39.593 Q30.888,28.321 38.284,23.615 Q42.951,20.609 49.753,20.609 Q58.692,20.609 64.605,24.88 Q70.517,29.152 70.517,37.537 Q70.517,42.678 67.947,46.198 Q66.444,48.334 62.172,51.656 L59.364,53.832 Q57.07,55.611 56.319,57.984 Q55.844,59.487 55.805,62.651 L45.126,62.651 Q45.363,55.967 46.391,53.416 Q47.42,50.865 51.691,47.543 L54.578,45.289 Q56.002,44.221 56.872,42.955 Q58.454,40.78 58.454,38.169 Q58.454,35.164 56.694,32.692 Q54.934,30.22 50.267,30.22 Q45.68,30.22 43.761,33.265 Q41.843,36.311 41.843,39.593 z" fill="#FFFFFF"/>
    <path d="M50.465,82.934 C46.629,82.934 43.52,79.824 43.52,75.988 C43.52,72.153 46.629,69.043 50.465,69.043 C54.301,69.043 57.411,72.153 57.411,75.988 C57.411,79.824 54.301,82.934 50.465,82.934 z" fill="#FFFFFF"/>
  </g>
</svg>
